<mxfile host="app.diagrams.net" modified="2024-06-10T07:42:29.493Z" agent="Mozilla/5.0 (Windows NT 10.0; Win64; x64) AppleWebKit/537.36 (KHTML, like Gecko) Chrome/125.0.0.0 Safari/537.36" etag="MBew8X6ybLioZDXUN-x7" version="24.5.2" type="github">
  <diagram name="Page-1" id="8uGI04pHdK-fCClmTZmJ">
    <mxGraphModel dx="2427" dy="775" grid="1" gridSize="10" guides="1" tooltips="1" connect="1" arrows="1" fold="1" page="1" pageScale="1" pageWidth="827" pageHeight="1169" math="0" shadow="0">
      <root>
        <mxCell id="0" />
        <mxCell id="1" parent="0" />
        <object label="&lt;font style=&quot;font-size: 18px;&quot;&gt;Buyzone&lt;/font&gt;" id="P6pVuIpdQZ4hUhEYTS1S-2">
          <mxCell style="text;strokeColor=none;align=center;fillColor=none;html=1;verticalAlign=middle;whiteSpace=wrap;rounded=0;" vertex="1" parent="1">
            <mxGeometry x="530" y="30" width="60" height="30" as="geometry" />
          </mxCell>
        </object>
        <mxCell id="P6pVuIpdQZ4hUhEYTS1S-68" style="edgeStyle=none;rounded=0;orthogonalLoop=1;jettySize=auto;html=1;" edge="1" parent="1" source="P6pVuIpdQZ4hUhEYTS1S-3" target="P6pVuIpdQZ4hUhEYTS1S-67">
          <mxGeometry relative="1" as="geometry" />
        </mxCell>
        <mxCell id="P6pVuIpdQZ4hUhEYTS1S-3" value="Customer&lt;div&gt;&lt;br&gt;&lt;/div&gt;" style="shape=umlActor;verticalLabelPosition=bottom;verticalAlign=top;html=1;outlineConnect=0;" vertex="1" parent="1">
          <mxGeometry x="-210" y="320" width="30" height="65" as="geometry" />
        </mxCell>
        <mxCell id="P6pVuIpdQZ4hUhEYTS1S-28" style="edgeStyle=none;rounded=0;orthogonalLoop=1;jettySize=auto;html=1;exitX=0.5;exitY=0.5;exitDx=0;exitDy=0;exitPerimeter=0;entryX=1;entryY=0.5;entryDx=0;entryDy=0;" edge="1" parent="1" source="P6pVuIpdQZ4hUhEYTS1S-6" target="P6pVuIpdQZ4hUhEYTS1S-9">
          <mxGeometry relative="1" as="geometry" />
        </mxCell>
        <mxCell id="P6pVuIpdQZ4hUhEYTS1S-31" style="edgeStyle=none;rounded=0;orthogonalLoop=1;jettySize=auto;html=1;entryX=1;entryY=0.5;entryDx=0;entryDy=0;" edge="1" parent="1" source="P6pVuIpdQZ4hUhEYTS1S-6" target="P6pVuIpdQZ4hUhEYTS1S-14">
          <mxGeometry relative="1" as="geometry" />
        </mxCell>
        <mxCell id="P6pVuIpdQZ4hUhEYTS1S-32" style="edgeStyle=none;rounded=0;orthogonalLoop=1;jettySize=auto;html=1;entryX=1;entryY=0.5;entryDx=0;entryDy=0;" edge="1" parent="1" source="P6pVuIpdQZ4hUhEYTS1S-6" target="P6pVuIpdQZ4hUhEYTS1S-11">
          <mxGeometry relative="1" as="geometry" />
        </mxCell>
        <mxCell id="P6pVuIpdQZ4hUhEYTS1S-33" style="edgeStyle=none;rounded=0;orthogonalLoop=1;jettySize=auto;html=1;entryX=1;entryY=0.5;entryDx=0;entryDy=0;" edge="1" parent="1" source="P6pVuIpdQZ4hUhEYTS1S-6" target="P6pVuIpdQZ4hUhEYTS1S-12">
          <mxGeometry relative="1" as="geometry" />
        </mxCell>
        <mxCell id="P6pVuIpdQZ4hUhEYTS1S-39" style="edgeStyle=none;rounded=0;orthogonalLoop=1;jettySize=auto;html=1;entryX=1;entryY=0.5;entryDx=0;entryDy=0;" edge="1" parent="1" source="P6pVuIpdQZ4hUhEYTS1S-6" target="P6pVuIpdQZ4hUhEYTS1S-36">
          <mxGeometry relative="1" as="geometry" />
        </mxCell>
        <mxCell id="P6pVuIpdQZ4hUhEYTS1S-44" style="edgeStyle=none;rounded=0;orthogonalLoop=1;jettySize=auto;html=1;entryX=1.015;entryY=0.353;entryDx=0;entryDy=0;entryPerimeter=0;" edge="1" parent="1" source="P6pVuIpdQZ4hUhEYTS1S-6" target="P6pVuIpdQZ4hUhEYTS1S-41">
          <mxGeometry relative="1" as="geometry" />
        </mxCell>
        <mxCell id="P6pVuIpdQZ4hUhEYTS1S-49" style="edgeStyle=none;rounded=0;orthogonalLoop=1;jettySize=auto;html=1;" edge="1" parent="1" source="P6pVuIpdQZ4hUhEYTS1S-6" target="P6pVuIpdQZ4hUhEYTS1S-15">
          <mxGeometry relative="1" as="geometry" />
        </mxCell>
        <mxCell id="P6pVuIpdQZ4hUhEYTS1S-64" style="edgeStyle=none;rounded=0;orthogonalLoop=1;jettySize=auto;html=1;" edge="1" parent="1" source="P6pVuIpdQZ4hUhEYTS1S-6" target="P6pVuIpdQZ4hUhEYTS1S-56">
          <mxGeometry relative="1" as="geometry" />
        </mxCell>
        <mxCell id="P6pVuIpdQZ4hUhEYTS1S-73" style="edgeStyle=none;rounded=0;orthogonalLoop=1;jettySize=auto;html=1;entryX=1;entryY=0.5;entryDx=0;entryDy=0;" edge="1" parent="1" source="P6pVuIpdQZ4hUhEYTS1S-6" target="P6pVuIpdQZ4hUhEYTS1S-57">
          <mxGeometry relative="1" as="geometry" />
        </mxCell>
        <mxCell id="P6pVuIpdQZ4hUhEYTS1S-6" value="Firebase backend&lt;div&gt;&lt;br&gt;&lt;/div&gt;" style="shape=umlActor;verticalLabelPosition=bottom;verticalAlign=top;html=1;outlineConnect=0;" vertex="1" parent="1">
          <mxGeometry x="1120" y="350" width="30" height="60" as="geometry" />
        </mxCell>
        <mxCell id="P6pVuIpdQZ4hUhEYTS1S-8" style="edgeStyle=orthogonalEdgeStyle;rounded=0;orthogonalLoop=1;jettySize=auto;html=1;exitX=0.5;exitY=1;exitDx=0;exitDy=0;" edge="1" parent="1">
          <mxGeometry relative="1" as="geometry">
            <mxPoint x="525" y="1010" as="sourcePoint" />
            <mxPoint x="525" y="1010" as="targetPoint" />
          </mxGeometry>
        </mxCell>
        <mxCell id="P6pVuIpdQZ4hUhEYTS1S-53" value="&amp;lt;&amp;lt;include&amp;gt;&amp;gt;" style="edgeStyle=none;rounded=0;orthogonalLoop=1;jettySize=auto;html=1;dashed=1;" edge="1" parent="1" source="P6pVuIpdQZ4hUhEYTS1S-9" target="P6pVuIpdQZ4hUhEYTS1S-51">
          <mxGeometry relative="1" as="geometry" />
        </mxCell>
        <mxCell id="P6pVuIpdQZ4hUhEYTS1S-66" value="&amp;lt;&amp;lt;include&amp;gt;&amp;gt;" style="edgeStyle=none;rounded=0;orthogonalLoop=1;jettySize=auto;html=1;dashed=1;" edge="1" parent="1" source="P6pVuIpdQZ4hUhEYTS1S-9" target="P6pVuIpdQZ4hUhEYTS1S-10">
          <mxGeometry relative="1" as="geometry" />
        </mxCell>
        <mxCell id="P6pVuIpdQZ4hUhEYTS1S-69" value="&amp;lt;&amp;lt;extend&amp;gt;&amp;gt;" style="edgeStyle=none;rounded=0;orthogonalLoop=1;jettySize=auto;html=1;entryX=1;entryY=0.5;entryDx=0;entryDy=0;dashed=1;" edge="1" parent="1" source="P6pVuIpdQZ4hUhEYTS1S-9" target="P6pVuIpdQZ4hUhEYTS1S-67">
          <mxGeometry relative="1" as="geometry" />
        </mxCell>
        <mxCell id="P6pVuIpdQZ4hUhEYTS1S-9" value="SignUp" style="ellipse;whiteSpace=wrap;html=1;" vertex="1" parent="1">
          <mxGeometry x="400" y="50" width="100" height="70" as="geometry" />
        </mxCell>
        <mxCell id="P6pVuIpdQZ4hUhEYTS1S-37" value="&amp;lt;&amp;lt;include&amp;gt;&amp;gt;" style="edgeStyle=none;rounded=0;orthogonalLoop=1;jettySize=auto;html=1;dashed=1;dashPattern=8 8;" edge="1" parent="1" source="P6pVuIpdQZ4hUhEYTS1S-10" target="P6pVuIpdQZ4hUhEYTS1S-36">
          <mxGeometry relative="1" as="geometry" />
        </mxCell>
        <mxCell id="P6pVuIpdQZ4hUhEYTS1S-52" value="&amp;lt;&amp;lt;include&amp;gt;&amp;gt;" style="edgeStyle=none;rounded=0;orthogonalLoop=1;jettySize=auto;html=1;dashed=1;" edge="1" parent="1" source="P6pVuIpdQZ4hUhEYTS1S-10" target="P6pVuIpdQZ4hUhEYTS1S-51">
          <mxGeometry relative="1" as="geometry" />
        </mxCell>
        <mxCell id="P6pVuIpdQZ4hUhEYTS1S-70" value="&amp;lt;&amp;lt;extend&amp;gt;&amp;gt;" style="edgeStyle=none;rounded=0;orthogonalLoop=1;jettySize=auto;html=1;dashed=1;" edge="1" parent="1" source="P6pVuIpdQZ4hUhEYTS1S-10" target="P6pVuIpdQZ4hUhEYTS1S-67">
          <mxGeometry relative="1" as="geometry" />
        </mxCell>
        <mxCell id="P6pVuIpdQZ4hUhEYTS1S-10" value="Login" style="ellipse;whiteSpace=wrap;html=1;" vertex="1" parent="1">
          <mxGeometry x="80" y="290" width="100" height="70" as="geometry" />
        </mxCell>
        <mxCell id="P6pVuIpdQZ4hUhEYTS1S-45" value="&amp;lt;&amp;lt;extend&amp;gt;&amp;gt;" style="edgeStyle=none;rounded=0;orthogonalLoop=1;jettySize=auto;html=1;dashed=1;" edge="1" parent="1" source="P6pVuIpdQZ4hUhEYTS1S-11" target="P6pVuIpdQZ4hUhEYTS1S-14">
          <mxGeometry relative="1" as="geometry" />
        </mxCell>
        <mxCell id="P6pVuIpdQZ4hUhEYTS1S-11" value="Wishlist" style="ellipse;whiteSpace=wrap;html=1;" vertex="1" parent="1">
          <mxGeometry x="550" y="380" width="140" height="70" as="geometry" />
        </mxCell>
        <mxCell id="P6pVuIpdQZ4hUhEYTS1S-62" value="&amp;lt;&amp;lt;extend&amp;gt;&amp;gt;" style="edgeStyle=none;rounded=0;orthogonalLoop=1;jettySize=auto;html=1;entryX=1;entryY=1;entryDx=0;entryDy=0;dashed=1;" edge="1" parent="1" source="P6pVuIpdQZ4hUhEYTS1S-12" target="P6pVuIpdQZ4hUhEYTS1S-14">
          <mxGeometry relative="1" as="geometry" />
        </mxCell>
        <mxCell id="P6pVuIpdQZ4hUhEYTS1S-12" value="Cart" style="ellipse;whiteSpace=wrap;html=1;" vertex="1" parent="1">
          <mxGeometry x="580" y="520" width="140" height="70" as="geometry" />
        </mxCell>
        <mxCell id="P6pVuIpdQZ4hUhEYTS1S-14" value="Dashboard" style="ellipse;whiteSpace=wrap;html=1;" vertex="1" parent="1">
          <mxGeometry x="110" y="530" width="140" height="70" as="geometry" />
        </mxCell>
        <mxCell id="P6pVuIpdQZ4hUhEYTS1S-65" value="&amp;lt;&amp;lt;extend&amp;gt;&amp;gt;" style="edgeStyle=none;rounded=0;orthogonalLoop=1;jettySize=auto;html=1;entryX=0.5;entryY=1;entryDx=0;entryDy=0;dashed=1;" edge="1" parent="1" source="P6pVuIpdQZ4hUhEYTS1S-15" target="P6pVuIpdQZ4hUhEYTS1S-54">
          <mxGeometry relative="1" as="geometry" />
        </mxCell>
        <mxCell id="P6pVuIpdQZ4hUhEYTS1S-15" value="User Info" style="ellipse;whiteSpace=wrap;html=1;" vertex="1" parent="1">
          <mxGeometry x="560" y="980" width="140" height="70" as="geometry" />
        </mxCell>
        <mxCell id="P6pVuIpdQZ4hUhEYTS1S-36" value="Verify Password" style="ellipse;whiteSpace=wrap;html=1;" vertex="1" parent="1">
          <mxGeometry x="460" y="270" width="140" height="70" as="geometry" />
        </mxCell>
        <mxCell id="P6pVuIpdQZ4hUhEYTS1S-42" value="&amp;lt;&amp;lt;extend&amp;gt;&amp;gt;" style="edgeStyle=none;rounded=0;orthogonalLoop=1;jettySize=auto;html=1;dashed=1;" edge="1" parent="1" source="P6pVuIpdQZ4hUhEYTS1S-41" target="P6pVuIpdQZ4hUhEYTS1S-10">
          <mxGeometry relative="1" as="geometry" />
        </mxCell>
        <mxCell id="P6pVuIpdQZ4hUhEYTS1S-41" value="Forget Password" style="ellipse;whiteSpace=wrap;html=1;" vertex="1" parent="1">
          <mxGeometry x="370" y="340" width="140" height="70" as="geometry" />
        </mxCell>
        <mxCell id="P6pVuIpdQZ4hUhEYTS1S-51" value="Display Error" style="ellipse;whiteSpace=wrap;html=1;" vertex="1" parent="1">
          <mxGeometry x="580" y="190" width="140" height="70" as="geometry" />
        </mxCell>
        <mxCell id="P6pVuIpdQZ4hUhEYTS1S-60" style="edgeStyle=none;rounded=0;orthogonalLoop=1;jettySize=auto;html=1;dashed=1;" edge="1" parent="1" source="P6pVuIpdQZ4hUhEYTS1S-54" target="P6pVuIpdQZ4hUhEYTS1S-14">
          <mxGeometry relative="1" as="geometry" />
        </mxCell>
        <mxCell id="P6pVuIpdQZ4hUhEYTS1S-54" value="Detail View" style="ellipse;whiteSpace=wrap;html=1;" vertex="1" parent="1">
          <mxGeometry x="80" y="670" width="140" height="70" as="geometry" />
        </mxCell>
        <mxCell id="P6pVuIpdQZ4hUhEYTS1S-58" value="&amp;lt;&amp;lt;extend&amp;gt;&amp;gt;" style="edgeStyle=none;rounded=0;orthogonalLoop=1;jettySize=auto;html=1;dashed=1;" edge="1" parent="1" source="P6pVuIpdQZ4hUhEYTS1S-56" target="P6pVuIpdQZ4hUhEYTS1S-54">
          <mxGeometry relative="1" as="geometry" />
        </mxCell>
        <mxCell id="P6pVuIpdQZ4hUhEYTS1S-56" value="Add To Cart" style="ellipse;whiteSpace=wrap;html=1;" vertex="1" parent="1">
          <mxGeometry x="600" y="810" width="100" height="70" as="geometry" />
        </mxCell>
        <mxCell id="P6pVuIpdQZ4hUhEYTS1S-59" value="&amp;lt;&amp;lt;extend&amp;gt;&amp;gt;" style="edgeStyle=none;rounded=0;orthogonalLoop=1;jettySize=auto;html=1;entryX=1;entryY=1;entryDx=0;entryDy=0;dashed=1;exitX=0;exitY=0.5;exitDx=0;exitDy=0;" edge="1" parent="1" source="P6pVuIpdQZ4hUhEYTS1S-57">
          <mxGeometry relative="1" as="geometry">
            <mxPoint x="520" y="660" as="sourcePoint" />
            <mxPoint x="219.99747468305804" y="698.788737341529" as="targetPoint" />
          </mxGeometry>
        </mxCell>
        <mxCell id="P6pVuIpdQZ4hUhEYTS1S-57" value="Add To Wishlist" style="ellipse;whiteSpace=wrap;html=1;" vertex="1" parent="1">
          <mxGeometry x="520" y="640" width="100" height="70" as="geometry" />
        </mxCell>
        <mxCell id="P6pVuIpdQZ4hUhEYTS1S-67" value="Landing Page" style="ellipse;whiteSpace=wrap;html=1;" vertex="1" parent="1">
          <mxGeometry x="90" y="110" width="100" height="70" as="geometry" />
        </mxCell>
        <mxCell id="P6pVuIpdQZ4hUhEYTS1S-72" value="&amp;lt;&amp;lt;include&amp;gt;&amp;gt;" style="edgeStyle=none;rounded=0;orthogonalLoop=1;jettySize=auto;html=1;entryX=0.264;entryY=0.057;entryDx=0;entryDy=0;entryPerimeter=0;dashed=1;" edge="1" parent="1" source="P6pVuIpdQZ4hUhEYTS1S-10" target="P6pVuIpdQZ4hUhEYTS1S-14">
          <mxGeometry relative="1" as="geometry" />
        </mxCell>
      </root>
    </mxGraphModel>
  </diagram>
</mxfile>
